<?xml version="1.0" standalone="no"?><!DOCTYPE svg PUBLIC "-//W3C//DTD SVG 1.1//EN" "http://www.w3.org/Graphics/SVG/1.1/DTD/svg11.dtd"><svg xmlns:xlink="http://www.w3.org/1999/xlink" version="1.1" style="font-family:'lucida grande', 'lucida sans unicode', arial, helvetica, sans-serif;font-size:12px;" xmlns="http://www.w3.org/2000/svg" width="600" height="400"><desc>Created with Highcharts 4.0.4</desc><defs><clipPath id="highcharts-13"><rect x="0" y="0" width="505" height="242"></rect></clipPath></defs><rect x="0" y="0" width="600" height="400" strokeWidth="0" fill="#FFFFFF" class=" highcharts-background"></rect><g class="highcharts-grid" ></g><g class="highcharts-grid" ><path fill="none" d="M 85 52.5 L 590 52.5" stroke="#C0C0C0" stroke-width="1"  opacity="1"></path><path fill="none" d="M 85 134.5 L 590 134.5" stroke="#C0C0C0" stroke-width="1"  opacity="1"></path><path fill="none" d="M 85 214.5 L 590 214.5" stroke="#C0C0C0" stroke-width="1"  opacity="1"></path><path fill="none" d="M 85 295.5 L 590 295.5" stroke="#C0C0C0" stroke-width="1"  opacity="1"></path></g><g class="highcharts-axis" ><path fill="none" d="M 254.5 295 L 254.5 305" stroke="#C0D0E0" stroke-width="1" opacity="1"></path><path fill="none" d="M 364.5 295 L 364.5 305" stroke="#C0D0E0" stroke-width="1" opacity="1"></path><path fill="none" d="M 474.5 295 L 474.5 305" stroke="#C0D0E0" stroke-width="1" opacity="1"></path><path fill="none" d="M 584.5 295 L 584.5 305" stroke="#C0D0E0" stroke-width="1" opacity="1"></path><path fill="none" d="M 144.5 295 L 144.5 305" stroke="#C0D0E0" stroke-width="1" opacity="1"></path><text x="337.5"  text-anchor="middle" transform="translate(0,0)" class=" highcharts-xaxis-title" style="color:#707070;fill:#707070;" visibility="visible" y="336.65625">Samples</text><path fill="none" d="M 85 295.5 L 590 295.5" stroke="#C0D0E0" stroke-width="1"  visibility="visible"></path></g><g class="highcharts-axis" ><text x="28.703125"  text-anchor="middle" transform="translate(0,0) rotate(270 28.703125 174)" class=" highcharts-yaxis-title" style="color:#707070;fill:#707070;" visibility="visible" y="174">Error</text></g><g class="highcharts-series-group" ><g class="highcharts-series" visibility="visible"  transform="translate(85,53) scale(1 1)" clip-path="url(#highcharts-13)"><path fill="none" d="M 4.950980392156862 18.96888887024818 L 59.96187363834422 111.91025710007341 L 114.97276688453158 160.03158043494938 L 169.98366013071893 160.83838738138135 L 224.9945533769063 180.95082047279405 L 280.0054466230937 181.45881643161073 L 335.016339869281 199.38334996596075 L 390.0272331154684 205.8216115809728 L 445.03812636165577 215.69782386282245 L 500.0490196078431 227.5604780903698" stroke="#7cb5ec" stroke-width="2"  stroke-linejoin="round" stroke-linecap="round"></path></g><g class="highcharts-markers" visibility="visible"  transform="translate(85,53) scale(1 1)" clip-path="none"><path fill="#7cb5ec" d="M 500 223.5604780903698 C 505.328 223.5604780903698 505.328 231.5604780903698 500 231.5604780903698 C 494.672 231.5604780903698 494.672 223.5604780903698 500 223.5604780903698 Z"></path><path fill="#7cb5ec" d="M 445 211.69782386282245 C 450.328 211.69782386282245 450.328 219.69782386282245 445 219.69782386282245 C 439.672 219.69782386282245 439.672 211.69782386282245 445 211.69782386282245 Z"></path><path fill="#7cb5ec" d="M 390 201.8216115809728 C 395.328 201.8216115809728 395.328 209.8216115809728 390 209.8216115809728 C 384.672 209.8216115809728 384.672 201.8216115809728 390 201.8216115809728 Z"></path><path fill="#7cb5ec" d="M 335 195.38334996596075 C 340.328 195.38334996596075 340.328 203.38334996596075 335 203.38334996596075 C 329.672 203.38334996596075 329.672 195.38334996596075 335 195.38334996596075 Z"></path><path fill="#7cb5ec" d="M 280 177.45881643161073 C 285.328 177.45881643161073 285.328 185.45881643161073 280 185.45881643161073 C 274.672 185.45881643161073 274.672 177.45881643161073 280 177.45881643161073 Z"></path><path fill="#7cb5ec" d="M 224 176.95082047279405 C 229.328 176.95082047279405 229.328 184.95082047279405 224 184.95082047279405 C 218.672 184.95082047279405 218.672 176.95082047279405 224 176.95082047279405 Z"></path><path fill="#7cb5ec" d="M 169 156.83838738138135 C 174.328 156.83838738138135 174.328 164.83838738138135 169 164.83838738138135 C 163.672 164.83838738138135 163.672 156.83838738138135 169 156.83838738138135 Z"></path><path fill="#7cb5ec" d="M 114 156.03158043494938 C 119.328 156.03158043494938 119.328 164.03158043494938 114 164.03158043494938 C 108.672 164.03158043494938 108.672 156.03158043494938 114 156.03158043494938 Z"></path><path fill="#7cb5ec" d="M 59 107.91025710007341 C 64.328 107.91025710007341 64.328 115.91025710007341 59 115.91025710007341 C 53.672 115.91025710007341 53.672 107.91025710007341 59 107.91025710007341 Z"></path><path fill="#7cb5ec" d="M 4 14.968888870248179 C 9.328 14.968888870248179 9.328 22.96888887024818 4 22.96888887024818 C -1.328 22.96888887024818 -1.328 14.968888870248179 4 14.968888870248179 Z"></path></g></g><text x="300" text-anchor="middle" class="highcharts-title"  style="color:#333333;font-size:18px;fill:#333333;width:536px;" y="25"><tspan>Root-mean-square error of importance sampling</tspan></text><g class="highcharts-legend"  transform="translate(262,363)"><g ><g><g class="highcharts-legend-item"  transform="translate(8,3)"><path fill="none" d="M 0 11 L 16 11" stroke="#7cb5ec" stroke-width="2"></path><path fill="#7cb5ec" d="M 8 7 C 13.328 7 13.328 15 8 15 C 2.6719999999999997 15 2.6719999999999997 7 8 7 Z"></path><text x="21" style="color:#333333;font-size:12px;font-weight:bold;cursor:pointer;fill:#333333;" text-anchor="start"  y="15"><tspan>Series 1</tspan></text></g></g></g></g><g class="highcharts-axis-labels highcharts-xaxis-labels" ><text x="144.96187363834423" text-anchor="middle" style="color:#606060;cursor:default;font-size:11px;fill:#606060;" y="315" opacity="1">2k</text><text x="254.98366013071893" text-anchor="middle" style="color:#606060;cursor:default;font-size:11px;fill:#606060;" y="315" opacity="1">4k</text><text x="365.0054466230937" text-anchor="middle" style="color:#606060;cursor:default;font-size:11px;fill:#606060;" y="315" opacity="1">6k</text><text x="475.0272331154684" text-anchor="middle" style="color:#606060;cursor:default;font-size:11px;fill:#606060;" y="315" opacity="1">8k</text><text x="585.0490196078431" text-anchor="middle" style="color:#606060;cursor:default;font-size:11px;fill:#606060;" y="315" opacity="1">10k</text></g><g class="highcharts-axis-labels highcharts-yaxis-labels" ><text x="70" text-anchor="end" style="width:178px;color:#606060;cursor:default;font-size:11px;fill:#606060;" y="298.671875" opacity="1">0.005</text><text x="70" text-anchor="end" style="width:178px;color:#606060;cursor:default;font-size:11px;fill:#606060;" y="218.00520833333331" opacity="1">0.01</text><text x="70" text-anchor="end" style="width:178px;color:#606060;cursor:default;font-size:11px;fill:#606060;" y="137.33854166666669" opacity="1">0.015</text><text x="70" text-anchor="end" style="width:178px;color:#606060;cursor:default;font-size:11px;fill:#606060;" y="56.671875" opacity="1">0.02</text></g><g class="highcharts-tooltip"  style="cursor:default;padding:0;white-space:nowrap;" transform="translate(0,-9999)"><path fill="none" d="M 3 0 L 13 0 C 16 0 16 0 16 3 L 16 13 C 16 16 16 16 13 16 L 3 16 C 0 16 0 16 0 13 L 0 3 C 0 0 0 0 3 0"  stroke="black" stroke-opacity="0.049999999999999996" stroke-width="5" transform="translate(1, 1)"></path><path fill="none" d="M 3 0 L 13 0 C 16 0 16 0 16 3 L 16 13 C 16 16 16 16 13 16 L 3 16 C 0 16 0 16 0 13 L 0 3 C 0 0 0 0 3 0"  stroke="black" stroke-opacity="0.09999999999999999" stroke-width="3" transform="translate(1, 1)"></path><path fill="none" d="M 3 0 L 13 0 C 16 0 16 0 16 3 L 16 13 C 16 16 16 16 13 16 L 3 16 C 0 16 0 16 0 13 L 0 3 C 0 0 0 0 3 0"  stroke="black" stroke-opacity="0.15" stroke-width="1" transform="translate(1, 1)"></path><path fill="rgb(249, 249, 249)" fill-opacity=" .85" d="M 3 0 L 13 0 C 16 0 16 0 16 3 L 16 13 C 16 16 16 16 13 16 L 3 16 C 0 16 0 16 0 13 L 0 3 C 0 0 0 0 3 0"></path><text x="8"  style="font-size:12px;color:#333333;fill:#333333;" y="21"></text></g><text x="590" text-anchor="end"  style="cursor:pointer;color:#909090;font-size:9px;fill:#909090;" y="395"></text></svg>