<?xml version="1.0" standalone="no"?><!DOCTYPE svg PUBLIC "-//W3C//DTD SVG 1.1//EN" "http://www.w3.org/Graphics/SVG/1.1/DTD/svg11.dtd"><svg xmlns:xlink="http://www.w3.org/1999/xlink" version="1.1" style="font-family:'lucida grande', 'lucida sans unicode', arial, helvetica, sans-serif;font-size:12px;" xmlns="http://www.w3.org/2000/svg" width="600" height="400"><desc>Created with Highcharts 4.0.4</desc><defs><clipPath id="highcharts-13"><rect x="0" y="0" width="512" height="242"></rect></clipPath></defs><rect x="0" y="0" width="600" height="400" strokeWidth="0" fill="#FFFFFF" class=" highcharts-background"></rect><g class="highcharts-grid" ></g><g class="highcharts-grid" ><path fill="none" d="M 78 53.5 L 590 53.5" stroke="#C0C0C0" stroke-width="1"  opacity="1"></path><path fill="none" d="M 78 101.5 L 590 101.5" stroke="#C0C0C0" stroke-width="1"  opacity="1"></path><path fill="none" d="M 78 150.5 L 590 150.5" stroke="#C0C0C0" stroke-width="1"  opacity="1"></path><path fill="none" d="M 78 198.5 L 590 198.5" stroke="#C0C0C0" stroke-width="1"  opacity="1"></path><path fill="none" d="M 78 247.5 L 590 247.5" stroke="#C0C0C0" stroke-width="1"  opacity="1"></path><path fill="none" d="M 78 295.5 L 590 295.5" stroke="#C0C0C0" stroke-width="1"  opacity="1"></path></g><g class="highcharts-axis" ><path fill="none" d="M 249.5 295 L 249.5 305" stroke="#C0D0E0" stroke-width="1" opacity="1"></path><path fill="none" d="M 361.5 295 L 361.5 305" stroke="#C0D0E0" stroke-width="1" opacity="1"></path><path fill="none" d="M 472.5 295 L 472.5 305" stroke="#C0D0E0" stroke-width="1" opacity="1"></path><path fill="none" d="M 584.5 295 L 584.5 305" stroke="#C0D0E0" stroke-width="1" opacity="1"></path><path fill="none" d="M 138.5 295 L 138.5 305" stroke="#C0D0E0" stroke-width="1" opacity="1"></path><text x="334"  text-anchor="middle" transform="translate(0,0)" class=" highcharts-xaxis-title" style="color:#707070;fill:#707070;" visibility="visible" y="336.65625">Samples</text><path fill="none" d="M 78 295.5 L 590 295.5" stroke="#C0D0E0" stroke-width="1"  visibility="visible"></path></g><g class="highcharts-axis" ><text x="28.65625"  text-anchor="middle" transform="translate(0,0) rotate(270 28.65625 174)" class=" highcharts-yaxis-title" style="color:#707070;fill:#707070;" visibility="visible" y="174">Error</text></g><g class="highcharts-series-group" ><g class="highcharts-series" visibility="visible"  transform="translate(78,53) scale(1 1)" clip-path="url(#highcharts-13)"><path fill="none" d="M 5.019607843137255 24.923747499732684 L 60.79302832244009 108.24508016205448 L 116.56644880174291 148.57120595343378 L 172.33986928104574 160.99391066453447 L 228.11328976034858 189.67091261451904 L 283.8867102396514 194.11041686953675 L 339.66013071895424 198.9701373381235 L 395.4335511982571 206.0615776479599 L 451.20697167755986 210.2112658041095 L 506.9803921568627 216.7006598913546" stroke="#7cb5ec" stroke-width="2"  stroke-linejoin="round" stroke-linecap="round"></path></g><g class="highcharts-markers" visibility="visible"  transform="translate(78,53) scale(1 1)" clip-path="none"><path fill="#7cb5ec" d="M 506 212.7006598913546 C 511.328 212.7006598913546 511.328 220.7006598913546 506 220.7006598913546 C 500.672 220.7006598913546 500.672 212.7006598913546 506 212.7006598913546 Z"></path><path fill="#7cb5ec" d="M 451 206.2112658041095 C 456.328 206.2112658041095 456.328 214.2112658041095 451 214.2112658041095 C 445.672 214.2112658041095 445.672 206.2112658041095 451 206.2112658041095 Z"></path><path fill="#7cb5ec" d="M 395 202.0615776479599 C 400.328 202.0615776479599 400.328 210.0615776479599 395 210.0615776479599 C 389.672 210.0615776479599 389.672 202.0615776479599 395 202.0615776479599 Z"></path><path fill="#7cb5ec" d="M 339 194.9701373381235 C 344.328 194.9701373381235 344.328 202.9701373381235 339 202.9701373381235 C 333.672 202.9701373381235 333.672 194.9701373381235 339 194.9701373381235 Z"></path><path fill="#7cb5ec" d="M 283 190.11041686953675 C 288.328 190.11041686953675 288.328 198.11041686953675 283 198.11041686953675 C 277.672 198.11041686953675 277.672 190.11041686953675 283 190.11041686953675 Z"></path><path fill="#7cb5ec" d="M 228 185.67091261451904 C 233.328 185.67091261451904 233.328 193.67091261451904 228 193.67091261451904 C 222.672 193.67091261451904 222.672 185.67091261451904 228 185.67091261451904 Z"></path><path fill="#7cb5ec" d="M 172 156.99391066453447 C 177.328 156.99391066453447 177.328 164.99391066453447 172 164.99391066453447 C 166.672 164.99391066453447 166.672 156.99391066453447 172 156.99391066453447 Z"></path><path fill="#7cb5ec" d="M 116 144.57120595343378 C 121.328 144.57120595343378 121.328 152.57120595343378 116 152.57120595343378 C 110.672 152.57120595343378 110.672 144.57120595343378 116 144.57120595343378 Z"></path><path fill="#7cb5ec" d="M 60 104.24508016205448 C 65.328 104.24508016205448 65.328 112.24508016205448 60 112.24508016205448 C 54.672 112.24508016205448 54.672 104.24508016205448 60 104.24508016205448 Z"></path><path fill="#7cb5ec" d="M 5 20.923747499732684 C 10.328 20.923747499732684 10.328 28.923747499732684 5 28.923747499732684 C -0.32800000000000007 28.923747499732684 -0.32800000000000007 20.923747499732684 5 20.923747499732684 Z"></path></g></g><text x="300" text-anchor="middle" class="highcharts-title"  style="color:#333333;font-size:18px;fill:#333333;width:536px;" y="25"><tspan>Root-mean-square error of Metropolis-Hastings sampling</tspan></text><g class="highcharts-legend"  transform="translate(262,363)"><g ><g><g class="highcharts-legend-item"  transform="translate(8,3)"><path fill="none" d="M 0 11 L 16 11" stroke="#7cb5ec" stroke-width="2"></path><path fill="#7cb5ec" d="M 8 7 C 13.328 7 13.328 15 8 15 C 2.6719999999999997 15 2.6719999999999997 7 8 7 Z"></path><text x="21" style="color:#333333;font-size:12px;font-weight:bold;cursor:pointer;fill:#333333;" text-anchor="start"  y="15"><tspan>Series 1</tspan></text></g></g></g></g><g class="highcharts-axis-labels highcharts-xaxis-labels" ><text x="138.79302832244008" text-anchor="middle" style="color:#606060;cursor:default;font-size:11px;fill:#606060;" y="315" opacity="1">20k</text><text x="250.33986928104574" text-anchor="middle" style="color:#606060;cursor:default;font-size:11px;fill:#606060;" y="315" opacity="1">40k</text><text x="361.8867102396514" text-anchor="middle" style="color:#606060;cursor:default;font-size:11px;fill:#606060;" y="315" opacity="1">60k</text><text x="473.4335511982571" text-anchor="middle" style="color:#606060;cursor:default;font-size:11px;fill:#606060;" y="315" opacity="1">80k</text><text x="584.9803921568628" text-anchor="middle" style="color:#606060;cursor:default;font-size:11px;fill:#606060;" y="315" opacity="1">100k</text></g><g class="highcharts-axis-labels highcharts-yaxis-labels" ><text x="63" text-anchor="end" style="width:178px;color:#606060;cursor:default;font-size:11px;fill:#606060;" y="298.671875" opacity="1">0.01</text><text x="63" text-anchor="end" style="width:178px;color:#606060;cursor:default;font-size:11px;fill:#606060;" y="250.27187500000002" opacity="1">0.02</text><text x="63" text-anchor="end" style="width:178px;color:#606060;cursor:default;font-size:11px;fill:#606060;" y="201.87187500000005" opacity="1">0.03</text><text x="63" text-anchor="end" style="width:178px;color:#606060;cursor:default;font-size:11px;fill:#606060;" y="153.471875" opacity="1">0.04</text><text x="63" text-anchor="end" style="width:178px;color:#606060;cursor:default;font-size:11px;fill:#606060;" y="105.071875" opacity="1">0.05</text><text x="63" text-anchor="end" style="width:178px;color:#606060;cursor:default;font-size:11px;fill:#606060;" y="56.67187500000003" opacity="1">0.06</text></g><g class="highcharts-tooltip"  style="cursor:default;padding:0;white-space:nowrap;" transform="translate(0,-9999)"><path fill="none" d="M 3 0 L 13 0 C 16 0 16 0 16 3 L 16 13 C 16 16 16 16 13 16 L 3 16 C 0 16 0 16 0 13 L 0 3 C 0 0 0 0 3 0"  stroke="black" stroke-opacity="0.049999999999999996" stroke-width="5" transform="translate(1, 1)"></path><path fill="none" d="M 3 0 L 13 0 C 16 0 16 0 16 3 L 16 13 C 16 16 16 16 13 16 L 3 16 C 0 16 0 16 0 13 L 0 3 C 0 0 0 0 3 0"  stroke="black" stroke-opacity="0.09999999999999999" stroke-width="3" transform="translate(1, 1)"></path><path fill="none" d="M 3 0 L 13 0 C 16 0 16 0 16 3 L 16 13 C 16 16 16 16 13 16 L 3 16 C 0 16 0 16 0 13 L 0 3 C 0 0 0 0 3 0"  stroke="black" stroke-opacity="0.15" stroke-width="1" transform="translate(1, 1)"></path><path fill="rgb(249, 249, 249)" fill-opacity=" .85" d="M 3 0 L 13 0 C 16 0 16 0 16 3 L 16 13 C 16 16 16 16 13 16 L 3 16 C 0 16 0 16 0 13 L 0 3 C 0 0 0 0 3 0"></path><text x="8"  style="font-size:12px;color:#333333;fill:#333333;" y="21"></text></g><text x="590" text-anchor="end"  style="cursor:pointer;color:#909090;font-size:9px;fill:#909090;" y="395"></text></svg>